<?xml version="1.0" standalone="no"?>
<!DOCTYPE svg PUBLIC "-//W3C//DTD SVG 20010904//EN"
 "http://www.w3.org/TR/2001/REC-SVG-20010904/DTD/svg10.dtd">
<svg version="1.0" xmlns="http://www.w3.org/2000/svg"
 width="885.000000pt" height="523.000000pt" viewBox="0 0 885.000000 523.000000"
 preserveAspectRatio="xMidYMid meet">

<g transform="translate(0.000000,523.000000) scale(0.100000,-0.100000)"
fill="#000000" stroke="none">
<path d="M3410 4651 c-8 -5 -35 -12 -60 -16 -168 -25 -456 -133 -610 -227
-130 -79 -179 -117 -401 -310 -201 -176 -396 -304 -687 -451 -103 -52 -227
-112 -277 -132 -49 -20 -108 -45 -130 -55 -41 -18 -140 -53 -355 -126 -158
-54 -143 -57 22 -5 307 98 539 191 813 326 306 152 482 266 680 444 126 113
311 259 390 307 148 90 435 200 588 225 42 7 77 17 77 21 0 10 -31 10 -50 -1z"/>
<path d="M4275 4623 c-55 -1 -110 -5 -122 -8 -41 -9 -27 -41 40 -91 34 -26
103 -84 152 -129 194 -176 205 -184 278 -207 67 -20 80 -20 316 -12 313 11
1086 12 1256 0 89 -5 127 -5 120 2 -24 25 -514 217 -792 311 -150 51 -202 64
-328 80 -322 42 -668 63 -920 54z"/>
<path d="M3490 4535 c-138 -22 -406 -109 -424 -138 -7 -11 5 -31 50 -81 48
-54 101 -132 172 -254 6 -12 80 -11 457 2 248 9 489 19 537 22 l86 6 -45 71
c-124 194 -298 328 -483 371 -77 19 -242 19 -350 1z"/>
<path d="M2855 4308 c-116 -60 -173 -98 -243 -163 -52 -47 -132 -145 -120
-145 2 0 53 7 113 16 61 8 215 18 343 21 196 5 235 8 240 21 10 27 -79 169
-161 255 -45 48 -71 48 -172 -5z"/>
<path d="M5550 4125 c-445 -19 -478 -21 -325 -23 405 -7 1382 -138 1531 -206
145 -66 326 -215 451 -369 34 -44 63 -76 63 -71 0 4 -43 89 -95 190 -95 182
-104 207 -84 219 25 16 232 35 397 36 157 1 190 -2 287 -24 61 -14 123 -30
139 -36 16 -7 31 -9 34 -6 9 9 -140 72 -233 98 -148 41 -470 103 -630 121 -27
3 -129 15 -225 26 -455 52 -821 65 -1310 45z"/>
<path d="M7371 3859 c-190 -10 -217 -19 -206 -72 10 -45 122 -241 169 -294 58
-66 84 -76 211 -80 61 -2 210 -8 333 -14 253 -12 252 -12 252 57 0 57 -54 228
-88 277 -33 50 -54 60 -203 98 -144 36 -226 41 -468 28z"/>
<path d="M6104 3835 c-60 -47 -51 -105 28 -191 57 -63 128 -94 213 -94 54 0
68 4 94 26 61 51 32 146 -65 211 -110 76 -213 94 -270 48z"/>
<path d="M6324 3847 c59 -38 142 -106 160 -130 27 -37 26 -89 -4 -129 l-24
-33 24 16 c73 47 58 140 -36 221 -11 9 -47 29 -79 42 -33 14 -51 20 -41 13z"/>
<path d="M6572 3837 c-29 -31 -29 -98 -1 -152 52 -99 160 -174 263 -182 55 -5
64 -3 89 20 21 21 27 35 27 69 -1 54 -22 94 -84 158 -96 99 -242 142 -294 87z"/>
<path d="M6868 3774 c72 -63 104 -121 104 -186 0 -47 2 -50 14 -33 8 10 17 34
20 53 8 44 -28 97 -111 163 -77 61 -97 63 -27 3z"/>
<path d="M8088 3714 c-10 -9 6 -53 52 -143 49 -98 78 -141 97 -141 21 0 15 51
-13 120 -47 117 -109 192 -136 164z"/>
<path d="M5198 3596 c95 -36 149 -87 200 -187 61 -119 76 -210 69 -414 -4
-119 -10 -181 -26 -240 -53 -197 -149 -325 -276 -365 -57 -18 -66 -30 -23 -30
57 0 188 46 241 85 211 157 278 618 131 922 -69 143 -196 242 -322 250 l-57 3
63 -24z"/>
<path d="M2531 3365 c-1 -5 15 -55 35 -110 38 -108 75 -157 128 -174 32 -11
1116 -32 1466 -30 l195 2 -150 8 c-82 5 -260 15 -395 24 -135 8 -375 22 -535
30 -447 24 -489 29 -553 62 -51 26 -121 96 -174 173 -9 14 -17 21 -17 15z"/>
<path d="M738 3283 c7 -3 16 -2 19 1 4 3 -2 6 -13 5 -11 0 -14 -3 -6 -6z"/>
<path d="M2800 2959 c-74 -10 -139 -18 -145 -19 -5 0 -3 -4 5 -9 27 -16 1536
-18 1526 -3 -3 5 -101 12 -218 15 -715 23 -852 27 -938 30 -56 2 -150 -3 -230
-14z"/>
<path d="M5766 2794 c4 -82 9 -152 13 -156 9 -10 259 -35 491 -50 301 -19
1299 -16 1580 5 402 30 560 80 560 180 0 29 -24 97 -35 97 -3 0 -24 -9 -46
-21 -74 -37 -270 -66 -609 -90 -178 -13 -467 -8 -943 15 -266 13 -280 15 -331
40 -34 17 -66 43 -88 71 l-33 44 -200 1 c-110 0 -237 3 -283 7 l-83 6 7 -149z"/>
<path d="M5627 2810 c-3 -14 -11 -50 -18 -80 -32 -146 -146 -295 -273 -356
-54 -26 -65 -35 -51 -41 32 -12 337 12 371 30 41 21 175 147 168 158 -3 5 -22
9 -43 9 -21 0 -59 3 -85 6 l-46 7 -1 106 c0 58 -4 124 -8 146 -7 36 -8 37 -14
15z"/>
<path d="M1898 2773 c7 -3 16 -2 19 1 4 3 -2 6 -13 5 -11 0 -14 -3 -6 -6z"/>
<path d="M1995 2759 c53 -12 240 -42 770 -124 88 -14 198 -32 245 -41 72 -14
179 -17 680 -19 413 -2 546 0 435 6 -88 4 -221 13 -295 19 -74 6 -247 19 -385
30 -137 11 -263 22 -280 25 -16 2 -127 14 -245 24 -348 32 -749 71 -840 81
-102 12 -140 11 -85 -1z"/>
<path d="M7335 2500 l-370 -5 59 -48 c75 -61 124 -90 209 -122 93 -35 239 -37
342 -5 84 26 182 76 249 128 75 57 72 62 -31 60 -48 -2 -254 -5 -458 -8z"/>
<path d="M1871 1564 c-21 -26 -21 -36 -21 -556 l0 -529 25 -24 c24 -25 81 -34
119 -19 38 15 41 41 46 402 l5 352 158 -285 c87 -157 167 -290 177 -295 33
-18 85 -12 107 12 17 20 72 116 178 313 12 22 48 88 81 148 l59 107 5 -352 c5
-361 8 -387 46 -402 35 -14 100 -6 122 14 l22 21 0 538 0 538 -23 21 c-17 16
-36 22 -70 22 -75 0 -59 23 -342 -505 -68 -128 -125 -229 -134 -238 -4 -4 -45
64 -92 150 -46 87 -106 198 -132 248 -124 231 -180 326 -197 335 -10 6 -41 10
-69 10 -42 0 -53 -4 -70 -26z"/>
<path d="M5250 1563 c-22 -21 -88 -157 -251 -518 -122 -269 -224 -507 -226
-528 -5 -30 -1 -43 17 -62 32 -34 107 -35 138 -2 22 23 112 211 112 235 0 9
63 12 283 12 l284 0 21 -47 c12 -27 34 -78 50 -114 39 -87 63 -109 122 -109
86 0 111 54 69 148 -12 26 -33 72 -46 102 -14 30 -35 78 -48 105 -12 28 -34
75 -48 105 -46 103 -70 155 -100 220 -16 36 -67 148 -113 250 -49 108 -95 194
-110 208 -38 34 -114 31 -154 -5z m100 -255 c62 -144 180 -427 180 -432 0 -3
-92 -6 -204 -6 l-205 0 45 108 c98 233 158 372 161 372 2 0 12 -19 23 -42z"/>
<path d="M6238 1580 c-24 -15 -41 -72 -29 -101 5 -13 54 -86 108 -161 54 -76
133 -187 176 -247 l77 -109 0 -232 c0 -287 4 -300 101 -300 51 0 75 13 94 50
12 23 15 73 15 258 l0 228 176 250 c97 137 180 261 184 275 9 31 -11 83 -35
93 -34 13 -92 6 -118 -14 -14 -11 -87 -107 -162 -213 -75 -105 -142 -193 -148
-194 -7 -2 -37 33 -67 77 -143 209 -223 315 -248 332 -29 19 -97 23 -124 8z"/>
<path d="M3526 1557 c-14 -14 -27 -40 -31 -58 -3 -19 -5 -256 -3 -527 l3 -494
28 -24 c20 -17 40 -24 72 -24 99 0 105 15 105 265 l0 195 113 0 c172 0 159 12
323 -288 85 -156 101 -172 176 -172 49 0 60 6 78 39 19 36 7 70 -75 221 -77
141 -101 174 -149 205 l-28 18 61 28 c70 32 120 80 153 147 20 40 23 63 23
152 0 95 -3 111 -28 162 -33 67 -88 116 -167 149 -52 22 -69 24 -342 27 l-288
3 -24 -24z m505 -147 c58 -11 91 -31 123 -74 30 -40 30 -162 0 -202 -53 -72
-95 -83 -301 -84 l-153 0 0 178 c0 98 3 182 7 185 10 11 264 8 324 -3z"/>
</g>
</svg>
